<svg width="156" height="38" viewBox="0 0 156 38" fill="none" xmlns="http://www.w3.org/2000/svg">
<path d="M7.01172 12.9395L2.95898 25H0.117188L5.42969 10.7812H7.24609L7.01172 12.9395ZM10.4004 25L6.32812 12.9395L6.08398 10.7812H7.91016L13.252 25H10.4004ZM10.2148 19.7168V21.8359H2.58789V19.7168H10.2148ZM17.0996 9.99023V25H14.5215V9.99023H17.0996ZM23.7207 14.4336L19.1211 19.5996L16.6309 22.1289L15.8105 20.127L17.7344 17.7051L20.6055 14.4336H23.7207ZM21.084 25L17.8125 20.0781L19.5312 18.4082L24.0723 25H21.084ZM27.666 16.5918V25H25.0879V14.4336H27.5293L27.666 16.5918ZM30.8789 14.3652L30.8398 16.7676C30.6966 16.7415 30.5339 16.722 30.3516 16.709C30.1758 16.696 30.0098 16.6895 29.8535 16.6895C29.4564 16.6895 29.1081 16.7448 28.8086 16.8555C28.5091 16.9596 28.2585 17.1126 28.0566 17.3145C27.8613 17.5163 27.7116 17.7637 27.6074 18.0566C27.5033 18.3431 27.4447 18.6686 27.4316 19.0332L26.875 18.9648C26.875 18.2943 26.9434 17.6725 27.0801 17.0996C27.2168 16.5267 27.4154 16.0254 27.6758 15.5957C27.9362 15.166 28.2617 14.834 28.6523 14.5996C29.0495 14.3587 29.5052 14.2383 30.0195 14.2383C30.1628 14.2383 30.3158 14.2513 30.4785 14.2773C30.6478 14.2969 30.7812 14.3262 30.8789 14.3652ZM37.7832 22.7539V17.8809C37.7832 17.5228 37.7214 17.2135 37.5977 16.9531C37.474 16.6927 37.2852 16.4909 37.0312 16.3477C36.7773 16.2044 36.4551 16.1328 36.0645 16.1328C35.7194 16.1328 35.4167 16.1914 35.1562 16.3086C34.9023 16.4258 34.707 16.5918 34.5703 16.8066C34.4336 17.015 34.3652 17.2559 34.3652 17.5293H31.7773C31.7773 17.0931 31.8815 16.6797 32.0898 16.2891C32.2982 15.8919 32.5944 15.5404 32.9785 15.2344C33.3691 14.9219 33.8346 14.6777 34.375 14.502C34.9219 14.3262 35.5339 14.2383 36.2109 14.2383C37.0117 14.2383 37.7246 14.375 38.3496 14.6484C38.9811 14.9154 39.4759 15.319 39.834 15.8594C40.1986 16.3997 40.3809 17.0801 40.3809 17.9004V22.5098C40.3809 23.0371 40.4134 23.4896 40.4785 23.8672C40.5501 24.2383 40.6543 24.5605 40.791 24.834V25H38.1641C38.0404 24.7331 37.946 24.3945 37.8809 23.9844C37.8158 23.5677 37.7832 23.1576 37.7832 22.7539ZM38.1445 18.5645L38.1641 20.0977H36.5332C36.1296 20.0977 35.7747 20.14 35.4688 20.2246C35.1628 20.3027 34.9121 20.4199 34.7168 20.5762C34.5215 20.7259 34.375 20.9082 34.2773 21.123C34.1797 21.3314 34.1309 21.569 34.1309 21.8359C34.1309 22.0964 34.1895 22.3307 34.3066 22.5391C34.4303 22.7474 34.6061 22.9134 34.834 23.0371C35.0684 23.1543 35.3418 23.2129 35.6543 23.2129C36.11 23.2129 36.5072 23.1217 36.8457 22.9395C37.1842 22.7507 37.4479 22.5228 37.6367 22.2559C37.8255 21.9889 37.9264 21.735 37.9395 21.4941L38.6816 22.6074C38.5905 22.8743 38.4538 23.1576 38.2715 23.457C38.0892 23.7565 37.8548 24.0365 37.5684 24.2969C37.2819 24.5573 36.9368 24.7721 36.5332 24.9414C36.1296 25.1107 35.6608 25.1953 35.127 25.1953C34.4434 25.1953 33.8314 25.0586 33.291 24.7852C32.7507 24.5117 32.3242 24.1374 32.0117 23.6621C31.6992 23.1868 31.543 22.6465 31.543 22.041C31.543 21.4811 31.6471 20.9863 31.8555 20.5566C32.0638 20.127 32.373 19.7656 32.7832 19.4727C33.1934 19.1732 33.7012 18.9486 34.3066 18.7988C34.9186 18.6426 35.6185 18.5645 36.4062 18.5645H38.1445ZM45.2734 16.6016V25H42.6953V14.4336H45.127L45.2734 16.6016ZM44.8926 19.3359H44.1016C44.1016 18.6003 44.1895 17.9232 44.3652 17.3047C44.5475 16.6862 44.8145 16.1491 45.166 15.6934C45.5176 15.2311 45.9505 14.873 46.4648 14.6191C46.9857 14.3652 47.5879 14.2383 48.2715 14.2383C48.7467 14.2383 49.1829 14.3099 49.5801 14.4531C49.9772 14.5898 50.319 14.8079 50.6055 15.1074C50.8984 15.4004 51.123 15.7845 51.2793 16.2598C51.4355 16.7285 51.5137 17.2917 51.5137 17.9492V25H48.9355V18.2129C48.9355 17.7181 48.8639 17.3307 48.7207 17.0508C48.584 16.7708 48.3854 16.5755 48.125 16.4648C47.8646 16.3477 47.5521 16.2891 47.1875 16.2891C46.7839 16.2891 46.4355 16.3704 46.1426 16.5332C45.8561 16.6895 45.6185 16.9076 45.4297 17.1875C45.2474 17.4674 45.1107 17.7897 45.0195 18.1543C44.9349 18.5189 44.8926 18.9128 44.8926 19.3359ZM51.3184 18.8574L50.2539 19.0527C50.2604 18.3887 50.3516 17.7669 50.5273 17.1875C50.7031 16.6016 50.9603 16.0905 51.2988 15.6543C51.6439 15.2116 52.0703 14.8665 52.5781 14.6191C53.0924 14.3652 53.6849 14.2383 54.3555 14.2383C54.8763 14.2383 55.3451 14.3132 55.7617 14.4629C56.1849 14.6061 56.5462 14.8372 56.8457 15.1562C57.1452 15.4688 57.373 15.8757 57.5293 16.377C57.6921 16.8783 57.7734 17.4902 57.7734 18.2129V25H55.1758V18.2031C55.1758 17.6888 55.1042 17.2949 54.9609 17.0215C54.8242 16.748 54.6257 16.5592 54.3652 16.4551C54.1048 16.3444 53.7988 16.2891 53.4473 16.2891C53.0892 16.2891 52.7767 16.3574 52.5098 16.4941C52.2493 16.6243 52.028 16.8066 51.8457 17.041C51.6699 17.2754 51.5365 17.5488 51.4453 17.8613C51.3607 18.1673 51.3184 18.4993 51.3184 18.8574ZM70.918 12.9395L66.8652 25H64.0234L69.3359 10.7812H71.1523L70.918 12.9395ZM74.3066 25L70.2344 12.9395L69.9902 10.7812H71.8164L77.1582 25H74.3066ZM74.1211 19.7168V21.8359H66.4941V19.7168H74.1211ZM80.7422 16.6016V25H78.1641V14.4336H80.5957L80.7422 16.6016ZM80.3613 19.3359H79.5703C79.5703 18.6003 79.6582 17.9232 79.834 17.3047C80.0163 16.6862 80.2832 16.1491 80.6348 15.6934C80.9863 15.2311 81.4193 14.873 81.9336 14.6191C82.4544 14.3652 83.0566 14.2383 83.7402 14.2383C84.2155 14.2383 84.6517 14.3099 85.0488 14.4531C85.446 14.5898 85.7878 14.8079 86.0742 15.1074C86.3672 15.4004 86.5918 15.7845 86.748 16.2598C86.9043 16.7285 86.9824 17.2917 86.9824 17.9492V25H84.4043V18.2129C84.4043 17.7181 84.3327 17.3307 84.1895 17.0508C84.0527 16.7708 83.8542 16.5755 83.5938 16.4648C83.3333 16.3477 83.0208 16.2891 82.6562 16.2891C82.2526 16.2891 81.9043 16.3704 81.6113 16.5332C81.3249 16.6895 81.0872 16.9076 80.8984 17.1875C80.7161 17.4674 80.5794 17.7897 80.4883 18.1543C80.4036 18.5189 80.3613 18.9128 80.3613 19.3359ZM86.7871 18.8574L85.7227 19.0527C85.7292 18.3887 85.8203 17.7669 85.9961 17.1875C86.1719 16.6016 86.429 16.0905 86.7676 15.6543C87.1126 15.2116 87.5391 14.8665 88.0469 14.6191C88.5612 14.3652 89.1536 14.2383 89.8242 14.2383C90.3451 14.2383 90.8138 14.3132 91.2305 14.4629C91.6536 14.6061 92.015 14.8372 92.3145 15.1562C92.6139 15.4688 92.8418 15.8757 92.998 16.377C93.1608 16.8783 93.2422 17.4902 93.2422 18.2129V25H90.6445V18.2031C90.6445 17.6888 90.5729 17.2949 90.4297 17.0215C90.293 16.748 90.0944 16.5592 89.834 16.4551C89.5736 16.3444 89.2676 16.2891 88.916 16.2891C88.5579 16.2891 88.2454 16.3574 87.9785 16.4941C87.7181 16.6243 87.4967 16.8066 87.3145 17.041C87.1387 17.2754 87.0052 17.5488 86.9141 17.8613C86.8294 18.1673 86.7871 18.4993 86.7871 18.8574ZM98.125 16.6016V25H95.5469V14.4336H97.9785L98.125 16.6016ZM97.7441 19.3359H96.9531C96.9531 18.6003 97.041 17.9232 97.2168 17.3047C97.3991 16.6862 97.666 16.1491 98.0176 15.6934C98.3691 15.2311 98.8021 14.873 99.3164 14.6191C99.8372 14.3652 100.439 14.2383 101.123 14.2383C101.598 14.2383 102.035 14.3099 102.432 14.4531C102.829 14.5898 103.171 14.8079 103.457 15.1074C103.75 15.4004 103.975 15.7845 104.131 16.2598C104.287 16.7285 104.365 17.2917 104.365 17.9492V25H101.787V18.2129C101.787 17.7181 101.715 17.3307 101.572 17.0508C101.436 16.7708 101.237 16.5755 100.977 16.4648C100.716 16.3477 100.404 16.2891 100.039 16.2891C99.6354 16.2891 99.2871 16.3704 98.9941 16.5332C98.7077 16.6895 98.4701 16.9076 98.2812 17.1875C98.099 17.4674 97.9622 17.7897 97.8711 18.1543C97.7865 18.5189 97.7441 18.9128 97.7441 19.3359ZM104.17 18.8574L103.105 19.0527C103.112 18.3887 103.203 17.7669 103.379 17.1875C103.555 16.6016 103.812 16.0905 104.15 15.6543C104.495 15.2116 104.922 14.8665 105.43 14.6191C105.944 14.3652 106.536 14.2383 107.207 14.2383C107.728 14.2383 108.197 14.3132 108.613 14.4629C109.036 14.6061 109.398 14.8372 109.697 15.1562C109.997 15.4688 110.225 15.8757 110.381 16.377C110.544 16.8783 110.625 17.4902 110.625 18.2129V25H108.027V18.2031C108.027 17.6888 107.956 17.2949 107.812 17.0215C107.676 16.748 107.477 16.5592 107.217 16.4551C106.956 16.3444 106.65 16.2891 106.299 16.2891C105.941 16.2891 105.628 16.3574 105.361 16.4941C105.101 16.6243 104.88 16.8066 104.697 17.041C104.521 17.2754 104.388 17.5488 104.297 17.8613C104.212 18.1673 104.17 18.4993 104.17 18.8574ZM112.48 19.8242V19.6191C112.48 18.8444 112.591 18.1315 112.812 17.4805C113.034 16.8229 113.356 16.2533 113.779 15.7715C114.202 15.2897 114.72 14.9154 115.332 14.6484C115.944 14.375 116.641 14.2383 117.422 14.2383C118.216 14.2383 118.919 14.375 119.531 14.6484C120.15 14.9154 120.671 15.2897 121.094 15.7715C121.517 16.2533 121.839 16.8229 122.061 17.4805C122.282 18.1315 122.393 18.8444 122.393 19.6191V19.8242C122.393 20.5924 122.282 21.3053 122.061 21.9629C121.839 22.6139 121.517 23.1836 121.094 23.6719C120.671 24.1536 120.153 24.528 119.541 24.7949C118.929 25.0618 118.229 25.1953 117.441 25.1953C116.66 25.1953 115.96 25.0618 115.342 24.7949C114.723 24.528 114.202 24.1536 113.779 23.6719C113.356 23.1836 113.034 22.6139 112.812 21.9629C112.591 21.3053 112.48 20.5924 112.48 19.8242ZM115.059 19.6191V19.8242C115.059 20.2865 115.104 20.7194 115.195 21.123C115.286 21.5267 115.426 21.8815 115.615 22.1875C115.804 22.4935 116.048 22.7344 116.348 22.9102C116.654 23.0794 117.018 23.1641 117.441 23.1641C117.858 23.1641 118.216 23.0794 118.516 22.9102C118.815 22.7344 119.059 22.4935 119.248 22.1875C119.443 21.8815 119.587 21.5267 119.678 21.123C119.769 20.7194 119.814 20.2865 119.814 19.8242V19.6191C119.814 19.1634 119.769 18.737 119.678 18.3398C119.587 17.9362 119.443 17.5814 119.248 17.2754C119.059 16.9629 118.812 16.7188 118.506 16.543C118.206 16.3607 117.845 16.2695 117.422 16.2695C117.005 16.2695 116.647 16.3607 116.348 16.543C116.048 16.7188 115.804 16.9629 115.615 17.2754C115.426 17.5814 115.286 17.9362 115.195 18.3398C115.104 18.737 115.059 19.1634 115.059 19.6191ZM130.557 22.4902V14.4336H133.154V25H130.713L130.557 22.4902ZM130.889 20.3027L131.689 20.2832C131.689 20.9928 131.611 21.6471 131.455 22.2461C131.299 22.8451 131.055 23.3659 130.723 23.8086C130.397 24.2448 129.984 24.5866 129.482 24.834C128.981 25.0749 128.389 25.1953 127.705 25.1953C127.184 25.1953 126.709 25.1237 126.279 24.9805C125.85 24.8307 125.479 24.5996 125.166 24.2871C124.86 23.9681 124.622 23.5612 124.453 23.0664C124.284 22.5651 124.199 21.9629 124.199 21.2598V14.4336H126.777V21.2793C126.777 21.6309 126.816 21.9238 126.895 22.1582C126.979 22.3926 127.093 22.5846 127.236 22.7344C127.386 22.8776 127.559 22.9818 127.754 23.0469C127.956 23.1055 128.171 23.1348 128.398 23.1348C129.023 23.1348 129.515 23.0111 129.873 22.7637C130.238 22.5098 130.498 22.1712 130.654 21.748C130.811 21.3184 130.889 20.8366 130.889 20.3027ZM138.018 16.5918V25H135.439V14.4336H137.881L138.018 16.5918ZM141.23 14.3652L141.191 16.7676C141.048 16.7415 140.885 16.722 140.703 16.709C140.527 16.696 140.361 16.6895 140.205 16.6895C139.808 16.6895 139.46 16.7448 139.16 16.8555C138.861 16.9596 138.61 17.1126 138.408 17.3145C138.213 17.5163 138.063 17.7637 137.959 18.0566C137.855 18.3431 137.796 18.6686 137.783 19.0332L137.227 18.9648C137.227 18.2943 137.295 17.6725 137.432 17.0996C137.568 16.5267 137.767 16.0254 138.027 15.5957C138.288 15.166 138.613 14.834 139.004 14.5996C139.401 14.3587 139.857 14.2383 140.371 14.2383C140.514 14.2383 140.667 14.2513 140.83 14.2773C140.999 14.2969 141.133 14.3262 141.23 14.3652Z" fill="black"/>
<path d="M149.012 20.9395L144.959 33H142.117L147.43 18.7812H149.246L149.012 20.9395ZM152.4 33L148.328 20.9395L148.084 18.7812H149.91L155.252 33H152.4ZM152.215 27.7168V29.8359H144.588V27.7168H152.215Z" fill="black"/>
<path d="M149.012 17.0605L144.959 5H142.117L147.43 19.2188H149.246L149.012 17.0605ZM152.4 5L148.328 17.0605L148.084 19.2188H149.91L155.252 5H152.4ZM152.215 10.2832V8.16406H144.588V10.2832H152.215Z" fill="black"/>
</svg>
